<?xml version="1.0" encoding="UTF-8"?>
<svg width="208px" height="36px" viewBox="0 0 208 36" version="1.1" xmlns="http://www.w3.org/2000/svg" xmlns:xlink="http://www.w3.org/1999/xlink">
    <title>logo</title>
    <g id="Symbols" stroke="none" stroke-width="1" fill="none" fill-rule="evenodd">
        <g id="logo" transform="translate(0.000000, 1.000000)">
            <path d="M34.0517578,24 L34.0517578,19.4824219 L35.7216797,19.4824219 L37.9804688,24 L41.2851562,24 L41.2851562,23.8681641 L38.6132812,18.7089844 C39.3808594,18.3457031 39.9448242,17.8710938 40.3051758,17.2851562 C40.6655273,16.6992188 40.8457031,15.9609375 40.8457031,15.0703125 C40.8457031,13.8398438 40.4179688,12.8876953 39.5625,12.2138672 C38.7070312,11.5400391 37.5205078,11.203125 36.0029297,11.203125 L36.0029297,11.203125 L30.9667969,11.203125 L30.9667969,24 L34.0517578,24 Z M36.0029297,17.1005859 L34.0517578,17.1005859 L34.0517578,13.5849609 L36.0029297,13.5849609 C36.5830078,13.5849609 37.0224609,13.7416992 37.3212891,14.0551758 C37.6201172,14.3686523 37.7695312,14.8007812 37.7695312,15.3515625 C37.7695312,15.9023438 37.621582,16.331543 37.3256836,16.6391602 C37.0297852,16.9467773 36.5888672,17.1005859 36.0029297,17.1005859 L36.0029297,17.1005859 Z M51.5244141,24 L51.5244141,21.6269531 L45.7939453,21.6269531 L45.7939453,18.5771484 L50.6455078,18.5771484 L50.6455078,16.2832031 L45.7939453,16.2832031 L45.7939453,13.5849609 L51.5419922,13.5849609 L51.5419922,11.203125 L42.7089844,11.203125 L42.7089844,24 L51.5244141,24 Z M57.7294922,24.1757812 C59.2001953,24.1757812 60.3574219,23.8564453 61.2011719,23.2177734 C62.0449219,22.5791016 62.4667969,21.7001953 62.4667969,20.5810547 C62.4667969,19.1806641 61.7753906,18.0820312 60.3925781,17.2851562 C59.8242188,16.9570312 59.0976562,16.6508789 58.2128906,16.3666992 C57.328125,16.0825195 56.7099609,15.8071289 56.3583984,15.5405273 C56.0068359,15.2739258 55.8310547,14.9765625 55.8310547,14.6484375 C55.8310547,14.2734375 55.9907227,13.9643555 56.3100586,13.7211914 C56.6293945,13.4780273 57.0644531,13.3564453 57.6152344,13.3564453 C58.1601562,13.3564453 58.5922852,13.5 58.9116211,13.7871094 C59.230957,14.0742188 59.390625,14.4785156 59.390625,15 L59.390625,15 L62.4667969,15 C62.4667969,14.2207031 62.2646484,13.527832 61.8603516,12.9213867 C61.4560547,12.3149414 60.8891602,11.8476562 60.159668,11.5195312 C59.4301758,11.1914062 58.6054688,11.0273438 57.6855469,11.0273438 C56.7421875,11.0273438 55.8925781,11.1782227 55.1367188,11.4799805 C54.3808594,11.7817383 53.7963867,12.2036133 53.3833008,12.7456055 C52.9702148,13.2875977 52.7636719,13.9130859 52.7636719,14.6220703 C52.7636719,16.0458984 53.5927734,17.1650391 55.2509766,17.9794922 C55.7607422,18.2314453 56.4169922,18.4921875 57.2197266,18.7617188 C58.0224609,19.03125 58.5834961,19.2919922 58.902832,19.5439453 C59.222168,19.7958984 59.3818359,20.1474609 59.3818359,20.5986328 C59.3818359,20.9970703 59.2338867,21.3061523 58.9379883,21.5258789 C58.6420898,21.7456055 58.2392578,21.8554688 57.7294922,21.8554688 C56.9326172,21.8554688 56.3569336,21.6928711 56.0024414,21.3676758 C55.6479492,21.0424805 55.4707031,20.5371094 55.4707031,19.8515625 L55.4707031,19.8515625 L52.3769531,19.8515625 C52.3769531,20.6953125 52.5893555,21.440918 53.0141602,22.0883789 C53.4389648,22.7358398 54.0717773,23.2456055 54.9125977,23.6176758 C55.753418,23.9897461 56.6923828,24.1757812 57.7294922,24.1757812 Z M69.3046875,24.1757812 C70.3945312,24.1757812 71.3657227,23.9165039 72.2182617,23.3979492 C73.0708008,22.8793945 73.7285156,22.1396484 74.1914062,21.1787109 C74.6542969,20.2177734 74.8857422,19.1132812 74.8857422,17.8652344 L74.8857422,17.8652344 L74.8857422,17.2763672 C74.8798828,16.0458984 74.6411133,14.9545898 74.1694336,14.0024414 C73.6977539,13.050293 73.0371094,12.3164062 72.1875,11.8007812 C71.3378906,11.2851562 70.3710938,11.0273438 69.2871094,11.0273438 C68.1914062,11.0273438 67.2143555,11.2880859 66.355957,11.8095703 C65.4975586,12.3310547 64.8383789,13.0708008 64.378418,14.0288086 C63.918457,14.9868164 63.6884766,16.0927734 63.6884766,17.3466797 L63.6884766,17.3466797 L63.6884766,18.0673828 C63.7119141,19.2744141 63.9594727,20.34375 64.4311523,21.2753906 C64.902832,22.2070312 65.5605469,22.9233398 66.4042969,23.4243164 C67.2480469,23.925293 68.2148438,24.1757812 69.3046875,24.1757812 Z M69.3046875,21.7675781 C68.484375,21.7675781 67.8662109,21.4306641 67.4501953,20.7568359 C67.0341797,20.0830078 66.8261719,19.1191406 66.8261719,17.8652344 L66.8261719,17.8652344 L66.8349609,16.9248047 C66.9228516,14.6044922 67.7402344,13.4443359 69.2871094,13.4443359 C70.078125,13.4443359 70.6860352,13.7739258 71.1108398,14.4331055 C71.5356445,15.0922852 71.7480469,16.0576172 71.7480469,17.3291016 L71.7480469,17.3291016 L71.7480469,17.9179688 C71.7421875,19.1601562 71.5283203,20.1123047 71.1064453,20.7744141 C70.6845703,21.4365234 70.0839844,21.7675781 69.3046875,21.7675781 Z M84.9316406,24 L84.9316406,21.6269531 L79.5615234,21.6269531 L79.5615234,11.203125 L76.4765625,11.203125 L76.4765625,24 L84.9316406,24 Z M91.03125,24.1757812 C92.0625,24.1757812 92.9560547,23.9941406 93.7119141,23.6308594 C94.4677734,23.2675781 95.0478516,22.7387695 95.4521484,22.0444336 C95.8564453,21.3500977 96.0585938,20.5283203 96.0585938,19.5791016 L96.0585938,19.5791016 L96.0585938,11.203125 L92.9736328,11.203125 L92.9736328,19.5615234 C92.9736328,20.3525391 92.8095703,20.9238281 92.4814453,21.2753906 C92.1533203,21.6269531 91.6699219,21.8027344 91.03125,21.8027344 C89.765625,21.8027344 89.1152344,21.1025391 89.0800781,19.7021484 L89.0800781,19.7021484 L89.0800781,11.203125 L85.9775391,11.203125 L85.9775391,19.640625 C85.9951172,21.046875 86.4521484,22.1542969 87.3486328,22.9628906 C88.2451172,23.7714844 89.4726562,24.1757812 91.03125,24.1757812 Z M104.188477,24 L104.188477,13.5849609 L108.029297,13.5849609 L108.029297,11.203125 L97.3330078,11.203125 L97.3330078,13.5849609 L101.103516,13.5849609 L101.103516,24 L104.188477,24 Z M118.145508,24 L118.145508,21.6269531 L112.415039,21.6269531 L112.415039,18.5771484 L117.266602,18.5771484 L117.266602,16.2832031 L112.415039,16.2832031 L112.415039,13.5849609 L118.163086,13.5849609 L118.163086,11.203125 L109.330078,11.203125 L109.330078,24 L118.145508,24 Z M126.09082,24 L126.09082,18.8232422 L129.09668,18.8232422 L131.874023,24 L133.68457,24 L133.68457,23.8945312 L130.678711,18.4628906 C131.446289,18.1699219 132.04541,17.7275391 132.476074,17.1357422 C132.906738,16.5439453 133.12207,15.8496094 133.12207,15.0527344 C133.12207,13.7988281 132.733887,12.84375 131.95752,12.1875 C131.181152,11.53125 130.072266,11.203125 128.630859,11.203125 L128.630859,11.203125 L124.394531,11.203125 L124.394531,24 L126.09082,24 Z M128.683594,17.4433594 L126.09082,17.4433594 L126.09082,12.5917969 L128.674805,12.5917969 C129.56543,12.5976562 130.246582,12.8115234 130.718262,13.2333984 C131.189941,13.6552734 131.425781,14.2617188 131.425781,15.0527344 C131.425781,15.7792969 131.178223,16.359375 130.683105,16.7929688 C130.187988,17.2265625 129.521484,17.4433594 128.683594,17.4433594 L128.683594,17.4433594 Z M140.197266,24.1757812 C141.228516,24.1757812 142.130859,23.9296875 142.904297,23.4375 C143.677734,22.9453125 144.275391,22.2319336 144.697266,21.2973633 C145.119141,20.362793 145.330078,19.2685547 145.330078,18.0146484 L145.330078,18.0146484 L145.330078,17.2060547 C145.330078,15.9580078 145.119141,14.8637695 144.697266,13.9233398 C144.275391,12.9829102 143.67334,12.2651367 142.891113,11.7700195 C142.108887,11.2749023 141.205078,11.0273438 140.179688,11.0273438 C139.171875,11.0273438 138.276855,11.277832 137.494629,11.7788086 C136.712402,12.2797852 136.107422,13.0019531 135.679688,13.9453125 C135.251953,14.8886719 135.038086,15.9755859 135.038086,17.2060547 L135.038086,17.2060547 L135.038086,18.1289062 C135.049805,19.3359375 135.270996,20.3979492 135.70166,21.3149414 C136.132324,22.2319336 136.737305,22.9379883 137.516602,23.4331055 C138.295898,23.9282227 139.189453,24.1757812 140.197266,24.1757812 Z M140.197266,22.7431641 C139.113281,22.7431641 138.262207,22.3227539 137.644043,21.4819336 C137.025879,20.6411133 136.716797,19.4853516 136.716797,18.0146484 L136.716797,18.0146484 L136.716797,17.0742188 C136.734375,15.6328125 137.049316,14.5063477 137.661621,13.6948242 C138.273926,12.8833008 139.113281,12.4775391 140.179688,12.4775391 C141.275391,12.4775391 142.12793,12.8833008 142.737305,13.6948242 C143.34668,14.5063477 143.651367,15.6708984 143.651367,17.1884766 L143.651367,17.1884766 L143.651367,18.1376953 C143.633789,19.6201172 143.326172,20.7583008 142.728516,21.5522461 C142.130859,22.3461914 141.287109,22.7431641 140.197266,22.7431641 Z M152.299805,24 C153.65918,24 154.710938,23.671875 155.455078,23.015625 C156.199219,22.359375 156.571289,21.4570312 156.571289,20.3085938 C156.571289,19.5585938 156.370605,18.9125977 155.969238,18.3706055 C155.567871,17.8286133 155.021484,17.4609375 154.330078,17.2675781 C154.916016,17.015625 155.378906,16.659668 155.71875,16.199707 C156.058594,15.7397461 156.228516,15.2109375 156.228516,14.6132812 C156.228516,13.4882812 155.878418,12.6386719 155.178223,12.0644531 C154.478027,11.4902344 153.433594,11.203125 152.044922,11.203125 L152.044922,11.203125 L147.861328,11.203125 L147.861328,24 L152.299805,24 Z M152.097656,16.6611328 L149.548828,16.6611328 L149.548828,12.5917969 L152.044922,12.5917969 C152.882812,12.5917969 153.506836,12.7514648 153.916992,13.0708008 C154.327148,13.3901367 154.532227,13.9013672 154.532227,14.6044922 C154.532227,15.2373047 154.311035,15.7382812 153.868652,16.1074219 C153.42627,16.4765625 152.835938,16.6611328 152.097656,16.6611328 L152.097656,16.6611328 Z M152.334961,22.6201172 L149.548828,22.6201172 L149.548828,18.0146484 L152.361328,18.0146484 C154.037109,18.0146484 154.875,18.7851562 154.875,20.3261719 C154.875,21.0410156 154.647949,21.6020508 154.193848,22.0092773 C153.739746,22.4165039 153.120117,22.6201172 152.334961,22.6201172 L152.334961,22.6201172 Z M163.77832,24.1757812 C164.80957,24.1757812 165.711914,23.9296875 166.485352,23.4375 C167.258789,22.9453125 167.856445,22.2319336 168.27832,21.2973633 C168.700195,20.362793 168.911133,19.2685547 168.911133,18.0146484 L168.911133,18.0146484 L168.911133,17.2060547 C168.911133,15.9580078 168.700195,14.8637695 168.27832,13.9233398 C167.856445,12.9829102 167.254395,12.2651367 166.472168,11.7700195 C165.689941,11.2749023 164.786133,11.0273438 163.760742,11.0273438 C162.75293,11.0273438 161.85791,11.277832 161.075684,11.7788086 C160.293457,12.2797852 159.688477,13.0019531 159.260742,13.9453125 C158.833008,14.8886719 158.619141,15.9755859 158.619141,17.2060547 L158.619141,17.2060547 L158.619141,18.1289062 C158.630859,19.3359375 158.852051,20.3979492 159.282715,21.3149414 C159.713379,22.2319336 160.318359,22.9379883 161.097656,23.4331055 C161.876953,23.9282227 162.770508,24.1757812 163.77832,24.1757812 Z M163.77832,22.7431641 C162.694336,22.7431641 161.843262,22.3227539 161.225098,21.4819336 C160.606934,20.6411133 160.297852,19.4853516 160.297852,18.0146484 L160.297852,18.0146484 L160.297852,17.0742188 C160.31543,15.6328125 160.630371,14.5063477 161.242676,13.6948242 C161.85498,12.8833008 162.694336,12.4775391 163.760742,12.4775391 C164.856445,12.4775391 165.708984,12.8833008 166.318359,13.6948242 C166.927734,14.5063477 167.232422,15.6708984 167.232422,17.1884766 L167.232422,17.1884766 L167.232422,18.1376953 C167.214844,19.6201172 166.907227,20.7583008 166.30957,21.5522461 C165.711914,22.3461914 164.868164,22.7431641 163.77832,22.7431641 Z M175.933594,24 L175.933594,12.5917969 L180.046875,12.5917969 L180.046875,11.203125 L170.150391,11.203125 L170.150391,12.5917969 L174.254883,12.5917969 L174.254883,24 L175.933594,24 Z M183.755859,24 L183.755859,11.203125 L182.068359,11.203125 L182.068359,24 L183.755859,24 Z M191.402344,24.1757812 C192.796875,24.1757812 193.914551,23.8081055 194.755371,23.0727539 C195.596191,22.3374023 196.095703,21.2929688 196.253906,19.9394531 L196.253906,19.9394531 L194.557617,19.9394531 C194.393555,20.9941406 194.061035,21.7338867 193.560059,22.1586914 C193.059082,22.5834961 192.339844,22.7958984 191.402344,22.7958984 C190.359375,22.7958984 189.547852,22.3857422 188.967773,21.5654297 C188.387695,20.7451172 188.097656,19.640625 188.097656,18.2519531 L188.097656,18.2519531 L188.097656,17.0126953 C188.097656,15.5419922 188.403809,14.4082031 189.016113,13.6113281 C189.628418,12.8144531 190.473633,12.4160156 191.551758,12.4160156 C192.430664,12.4160156 193.114746,12.6445312 193.604004,13.1015625 C194.093262,13.5585938 194.411133,14.296875 194.557617,15.3164062 L194.557617,15.3164062 L196.253906,15.3164062 C196.119141,13.9746094 195.641602,12.9243164 194.821289,12.1655273 C194.000977,11.4067383 192.911133,11.0273438 191.551758,11.0273438 C190.526367,11.0273438 189.624023,11.269043 188.844727,11.7524414 C188.06543,12.2358398 187.463379,12.9287109 187.038574,13.8310547 C186.61377,14.7333984 186.401367,15.7792969 186.401367,16.96875 L186.401367,16.96875 L186.401367,18.1992188 C186.401367,20.015625 186.856934,21.4658203 187.768066,22.5498047 C188.679199,23.6337891 189.890625,24.1757812 191.402344,24.1757812 Z M202.617188,24.1757812 C203.970703,24.1757812 205.051758,23.8637695 205.860352,23.2397461 C206.668945,22.6157227 207.073242,21.7851562 207.073242,20.7480469 C207.073242,20.0976562 206.928223,19.5322266 206.638184,19.0517578 C206.348145,18.5712891 205.902832,18.1508789 205.302246,17.7905273 C204.70166,17.4301758 203.869629,17.1005859 202.806152,16.8017578 C201.742676,16.5029297 200.989746,16.1733398 200.547363,15.8129883 C200.10498,15.4526367 199.883789,15.0117188 199.883789,14.4902344 C199.883789,13.8398438 200.116699,13.331543 200.58252,12.965332 C201.04834,12.5991211 201.697266,12.4160156 202.529297,12.4160156 C203.425781,12.4160156 204.120117,12.637207 204.612305,13.0795898 C205.104492,13.5219727 205.350586,14.1298828 205.350586,14.9033203 L205.350586,14.9033203 L207.046875,14.9033203 C207.046875,14.1943359 206.85791,13.5410156 206.47998,12.9433594 C206.102051,12.3457031 205.568848,11.8769531 204.880371,11.5371094 C204.191895,11.1972656 203.408203,11.0273438 202.529297,11.0273438 C201.240234,11.0273438 200.192871,11.3569336 199.387207,12.0161133 C198.581543,12.675293 198.178711,13.5087891 198.178711,14.5166016 C198.178711,15.4072266 198.508301,16.1557617 199.16748,16.762207 C199.82666,17.3686523 200.879883,17.8798828 202.327148,18.2958984 C203.481445,18.6298828 204.27832,18.9682617 204.717773,19.3110352 C205.157227,19.6538086 205.376953,20.1386719 205.376953,20.765625 C205.376953,21.3925781 205.139648,21.8876953 204.665039,22.2509766 C204.19043,22.6142578 203.507812,22.7958984 202.617188,22.7958984 C201.662109,22.7958984 200.898926,22.5717773 200.327637,22.1235352 C199.756348,21.675293 199.470703,21.0644531 199.470703,20.2910156 L199.470703,20.2910156 L197.774414,20.2910156 C197.774414,21.0351562 197.980957,21.7001953 198.394043,22.2861328 C198.807129,22.8720703 199.394531,23.3334961 200.15625,23.6704102 C200.917969,24.0073242 201.738281,24.1757812 202.617188,24.1757812 Z" id="RESOLUTEROBOTICS" fill="#000000" fill-rule="nonzero"></path>
            <g id="Group-57-Copy" transform="translate(11.000000, 17.000000) scale(-1, 1) translate(-11.000000, -17.000000) ">
                <path d="M19.2717746,0.00763450541 C19.0923887,0.00255623677 18.9123715,-7.85149723e-14 18.7317573,-7.85149723e-14 C8.38649341,-7.85149723e-14 -1.2300679e-12,8.38649341 -1.2300679e-12,18.7317573 C-1.2300679e-12,24.6292653 2.72542567,29.8902161 6.98547914,33.3238117" id="Path" stroke="#000000" stroke-width="2" stroke-linecap="round"></path>
                <path d="M18.7,7.93333333 C12.7537342,7.93333333 7.93333333,12.7537342 7.93333333,18.7 C7.93333333,24.6462658 12.7537342,29.4666667 18.7,29.4666667" id="Path" stroke="#000000" stroke-width="2" stroke-linecap="round"></path>
                <rect id="Rectangle-Copy-10" fill="#000000" x="18.4166667" y="7.93333333" width="1" height="11.3333333"></rect>
                <polygon id="Rectangle-Copy-9" fill="#000000" transform="translate(13.006813, 25.827593) rotate(40.000000) translate(-13.006813, -25.827593) " points="12.7234795 16.7609261 13.2901462 16.7609261 13.2901462 34.8942594 12.7234795 34.8942594"></polygon>
                <circle id="Oval-Copy-24" fill="#4099C8" cx="18.7" cy="18.7" r="3"></circle>
            </g>
        </g>
    </g>
</svg>